<?xml version="1.0" encoding="utf-8"?><svg version="1.1" id="Layer_1" xmlns="http://www.w3.org/2000/svg" xmlns:xlink="http://www.w3.org/1999/xlink" x="0px" y="0px" width="28px" height="15px" viewBox="0 0 28 15" style="enable-background:new 0 0 28 15;" xml:space="preserve">
<path class="st0" d="M1.5,0h25C27.3,0,28,0.7,28,1.5S27.3,3,26.5,3h-25C0.7,3,0,2.3,0,1.5S0.7,0,1.5,0z" fill="#fc7307" />
<path class="st0" d="M1.5,6h25C27.3,6,28,6.7,28,7.5S27.3,9,26.5,9h-25C0.7,9,0,8.3,0,7.5S0.7,6,1.5,6z" fill="#fc7307" />
<path class="st0" d="M1.5,12h25c0.8,0,1.5,0.7,1.5,1.5c0,0.8-0.7,1.5-1.5,1.5h-25C0.7,15,0,14.3,0,13.5C0,12.7,0.7,12,1.5,12z" fill="#fc7307" />
</svg>
