<?xml version="1.0" encoding="utf-8"?><svg version="1.1" id="Layer_1" xmlns="http://www.w3.org/2000/svg" xmlns:xlink="http://www.w3.org/1999/xlink" x="0px" y="0px" width="21px" height="26px" viewBox="0 0 21 26" style="enable-background:new 0 0 21 26;" xml:space="preserve"><path class="st0" d="M18.3,23.9c-1,0.8-2.1,1.3-3.3,1.6c-1.2,0.3-2.7,0.5-4.5,0.5H0V0h9.3c1.9,0,3.4,0.1,4.4,0.2
	c1,0.1,1.9,0.5,2.8,0.9c0.9,0.5,1.6,1.2,2.1,2C19,4,19.3,4.9,19.3,6c0,1.3-0.3,2.4-1,3.4c-0.6,1-1.5,1.7-2.7,2.2v0.1
	c1.6,0.3,2.9,1,3.9,2.1c1,1,1.5,2.4,1.5,4.2c0,1.3-0.2,2.4-0.7,3.4C19.8,22.4,19.1,23.2,18.3,23.9z M12.2,6.1c-0.2-0.4-0.6-0.8-1-1
	c-0.4-0.2-0.9-0.3-1.5-0.3s-1.5,0-2.7,0H6.6v5.5h0.8c1.1,0,1.9,0,2.4,0c0.5,0,0.9-0.1,1.4-0.4c0.5-0.2,0.9-0.6,1.1-1
	c0.2-0.4,0.3-0.9,0.3-1.5C12.6,6.9,12.5,6.5,12.2,6.1z M13.7,16c-0.3-0.5-0.8-0.8-1.5-1c-0.4-0.2-0.9-0.2-1.6-0.3
	c-0.7,0-1.6,0-2.8,0H6.6v6.5h0.4c1.7,0,2.9,0,3.6,0c0.7,0,1.3-0.2,2-0.5c0.6-0.3,1-0.6,1.3-1.1c0.3-0.5,0.4-1.1,0.4-1.7
	C14.2,17.1,14.1,16.5,13.7,16z" fill="#ffffff" /></svg>
